<svg xmlns="http://www.w3.org/2000/svg" width="88" height="88" viewBox="0 0 88 88">
    <g fill="none" fill-rule="evenodd">
        <g>
            <g>
                <g>
                    <path d="M32.522 43.33c-.096 0-1.34.192-2.296 1.148-.956.957-1.913 2.679-1.913 2.679l2.965 4.4c.192.286.192.573.096.86l-2.678 7.844c-.192.574-.192 1.243.095 1.817.287.574.766 1.052 1.34 1.244l.478.191c.574.191 1.243.191 1.817-.096.574-.287 1.052-.765 1.244-1.339l3.634-10.33c.192-.957-.191-1.818-.574-2.583-.287-.287-2.87-4.017-4.208-5.835zM13.678 43.235c-1.148 1.722-3.539 5.548-3.826 5.93-.382.765-.765 1.53-.574 2.583l3.635 10.235c.191.574.67 1.147 1.244 1.339.573.287 1.243.287 1.817.095l.478-.19c.574-.192 1.148-.67 1.34-1.244.286-.574.286-1.244.095-1.818l-2.774-7.748c-.096-.287-.096-.67.096-.86l2.582-3.922s-1.052-2.487-1.817-3.348c-.67-.67-2.104-.957-2.296-1.052z" transform="translate(-77.000000, -690.000000) translate(77.000000, 690.000000) translate(21.000000, 11.000000)"></path>
                    <path fill="#1F99D5" fill-rule="nonzero" d="M31.66 42.183c.383-.192.766-.383.862-.766 0-.095.095-.287.095-.382v-5.07H13.391c0 1.435 0 3.54.096 4.783v.86l.096.096c.19.192.765.479 1.147.574l.192.096c.765.287 1.626.574 2.104 1.052 1.626 1.53 2.009 2.774 2.104 3.635l.096.287c.096.574.096.86.383 1.148.095.095.191.191.382.287h5.835c.287-.096.478-.287.574-.479.096-.191.191-.382.191-.67 0-.286.096-.573.287-.956.383-.956 1.052-2.008 2.2-3.156.479-.479 1.244-.765 1.818-1.052.382-.096.574-.192.765-.287z" transform="translate(-77.000000, -690.000000) translate(77.000000, 690.000000) translate(21.000000, 11.000000)"></path>
                    <path fill="#062059" fill-rule="nonzero" d="M43.904 10.235l-.191-.096c-1.052-.574-2.296-.67-3.443-.382-1.148.382-2.105 1.147-2.679 2.2l-3.826 7.173-3.156-1.243c1.913-1.913 2.965-4.496 2.965-7.27 0-5.643-4.496-10.234-10.14-10.234-5.643 0-10.043 4.59-10.043 10.234 0 2.679 1.052 5.261 2.966 7.174l-3.253 1.435-3.826-7.174C8.704 11 7.748 10.14 6.6 9.852c-1.148-.382-2.391-.287-3.443.383l-.192.095c-2.2 1.148-3.06 4.018-1.913 6.218l5.644 11c.67 1.243 1.817 2.104 3.156 2.295.957.287 2.009.192 2.965-.19l.766-.288v5.07h-.287c-.574 0-1.148.478-1.148 1.052v.191c0 1.34 0 3.635.095 4.974v.861c0 .096 0 .191.096.383-1.148 1.817-3.539 5.452-3.826 6.026-.86 1.53-1.53 2.965-.956 4.591l3.634 10.235c.383 1.148 1.244 2.009 2.296 2.582.574.287 1.243.479 1.913.479.478 0 .957-.096 1.53-.287l.479-.192c1.148-.382 2.008-1.243 2.582-2.295.479-1.052.574-2.296.192-3.444l-2.966-7.27 1.722-2.582c.191.096.287.191.478.287.287.096.479.191.861.191h5.452c.192 0 .479 0 .861-.19.383-.192.67-.384.861-.575l1.913 2.87-2.582 7.27c-.383 1.147-.287 2.39.19 3.443.48 1.052 1.436 1.913 2.584 2.295l.478.192c.478.191.956.287 1.53.287.67 0 1.34-.192 1.913-.479 1.052-.478 1.913-1.434 2.296-2.582l3.635-10.235c.574-1.626-.096-3.06-.957-4.591-.382-.574-3.06-4.4-4.304-6.122.095-.191.095-.478.095-.765v-5.357c0-.67-.573-1.148-1.147-1.148H33v-5.26l1.148.478c.956.382 1.913.478 2.87.191 1.339-.287 2.486-1.148 3.156-2.391l5.835-11.096c.956-2.2.095-5.07-2.105-6.217zm-28.408.382c0-4.4 3.539-8.034 7.939-8.034s7.939 3.634 7.939 8.034c0 2.487-1.244 4.879-3.252 6.41-.957.669-2.105 1.243-3.252 1.434-.957.191-2.01.191-3.061 0-1.148-.191-2.296-.765-3.252-1.435-1.818-1.53-3.061-3.922-3.061-6.409zm-.287 40.94c-.192.286-.192.573-.096.86l2.774 7.748c.191.574.191 1.244-.096 1.818-.287.574-.765 1.052-1.339 1.243l-.478.191c-.574.192-1.244.192-1.817-.095-.574-.287-1.053-.765-1.244-1.34L9.278 51.749c-.191-.957.192-1.818.574-2.583.287-.382 2.774-4.208 3.826-5.93.192.095 1.626.287 2.392 1.052.765.765 1.817 3.252 1.817 3.348l-2.678 3.922zm11.86-4.974c-.095.382-.19.67-.286.956-.096.287-.096.574-.192.67-.095.191-.287.287-.574.478H20.183c-.192-.096-.287-.191-.383-.287-.287-.287-.383-.574-.383-1.148l-.287-.191c-.19-.957-.573-2.104-2.104-3.635-.478-.478-1.339-.765-2.104-1.052l-.192-.096c-.382-.095-.956-.382-1.147-.574l-.096-.095v-.861c0-1.244-.096-3.348-.096-4.783h19.226v5.07c0 .191 0 .287-.095.382-.096.383-.479.574-.861.766-.191.095-.383.19-.574.287-.574.287-1.244.573-1.817 1.052-1.148 1.052-1.818 2.104-2.2 3.06zm9.661 2.678c.383.765.766 1.53.574 2.582L33.67 62.078c-.192.574-.67 1.148-1.244 1.34-.574.286-1.243.286-1.817.095l-.479-.191c-.573-.192-1.147-.67-1.339-1.244-.287-.574-.287-1.243-.095-1.817l2.774-7.748c.095-.287.095-.67-.096-.86l-2.965-4.4s.956-1.723 1.913-2.68c.956-.956 2.2-1.147 2.295-1.147 1.244 1.722 3.826 5.452 4.113 5.835zM44 15.496L38.165 26.59c-.382.67-.956 1.148-1.817 1.34h-.096c-.478.19-1.052.095-1.53-.096l-4.018-1.818v8.418H15.591v-8.226l-3.634 1.626c-.479.191-1.053.287-1.53.095h-.097c-.765-.19-1.434-.573-1.721-1.339L2.774 15.496c-.67-1.244-.191-2.774 1.052-3.444l.191-.095c.574-.287 1.244-.383 1.913-.192.67.192 1.148.67 1.53 1.244l4.688 8.895 5.93-2.678c1.626 1.052 3.54 1.626 5.452 1.626 1.913 0 3.73-.478 5.357-1.53l5.835 2.582 4.687-8.895c.287-.574.86-1.052 1.53-1.244.67-.191 1.34-.095 1.913.192l.191.095c1.148.67 1.627 2.2.957 3.444z" transform="translate(-77.000000, -690.000000) translate(77.000000, 690.000000) translate(21.000000, 11.000000)"></path>
                </g>
            </g>
        </g>
    </g>
</svg>