<svg xmlns="http://www.w3.org/2000/svg" width="88" height="88" viewBox="0 0 88 88">
    <g fill="none" fill-rule="evenodd">
        <g>
            <g>
                <g>
                    <path fill="#062059" fill-rule="nonzero" d="M15.5 37.5c-4.7 0-8.6-2.3-11.6-6.8-1.5-2.5-2.5-5.3-2.8-8.2-.2-1-.3-2-.3-3l-.1-1.3V18c.1-3 .4-6.4 2.2-9.6C6 3 10.8.4 17 .6c2.2 0 4.3.6 6.1 1.7 3.1 2 4.7 5.1 4.8 9.1 0 1.3-.2 2.7-.8 3.9-.3.7-1.2 1-1.9.7-.7-.3-1-1.2-.7-1.9.4-.8.6-1.7.5-2.7-.1-3.1-1.2-5.3-3.5-6.8-1.4-.9-3-1.3-4.7-1.3C12 2.9 7.5 5.4 5.3 9.7 4 12 3.6 14.6 3.5 17.8c0 .4.1.8.1 1.2.1 1 .2 1.9.3 2.8.3 2.5 1.1 4.9 2.4 7 2.4 3.7 5.4 5.6 9.2 5.6h.7c1.9 0 3.7-.9 5-2.4 1.5-1.8 2.2-4.5-.2-6.8-.6-.5-.7-1.4-.2-2 .5-.6 1.4-.7 2-.2.1 0 .1.1.2.2 1.6 1.4 2.5 3.4 2.5 5.5-.1 1.9-.8 3.7-2 5.2-1.7 2.1-4.3 3.3-7 3.4l-1 .2z" transform="translate(-77.000000, -439.000000) translate(77.000000, 439.000000) translate(8.000000, 15.000000)"></path>
                    <g>
                        <path fill="#1F99D5" fill-rule="nonzero" d="M5.7 10.5L6.1 6 10.3 6zM2 6.3L6.3 2.1 6.1 6z" transform="translate(-77.000000, -439.000000) translate(77.000000, 439.000000) translate(8.000000, 15.000000) translate(6.000000, 14.000000)"></path>
                        <path stroke="#062059" stroke-width=".325" d="M11.7 0.6L0.3 11.8" transform="translate(-77.000000, -439.000000) translate(77.000000, 439.000000) translate(8.000000, 15.000000) translate(6.000000, 14.000000)"></path>
                        <path stroke="#062059" stroke-linecap="round" stroke-linejoin="round" stroke-width=".542" d="M2 6.3L6.3 2.1 11.7 0.6 10.3 6 5.7 10.5 0.3 11.8z" transform="translate(-77.000000, -439.000000) translate(77.000000, 439.000000) translate(8.000000, 15.000000) translate(6.000000, 14.000000)"></path>
                    </g>
                    <g>
                        <path fill="#1F99D5" fill-rule="nonzero" d="M4.7 9.2L2.8 6.6 5 4.6zM.6 8.7L1 4.3 2.8 6.6z" transform="translate(-77.000000, -439.000000) translate(77.000000, 439.000000) translate(8.000000, 15.000000) translate(5.000000, 7.000000)"></path>
                        <path stroke="#062059" stroke-width=".236" d="M3.2 0.9L2.4 12.4" transform="translate(-77.000000, -439.000000) translate(77.000000, 439.000000) translate(8.000000, 15.000000) translate(5.000000, 7.000000)"></path>
                        <path stroke="#062059" stroke-linecap="round" stroke-linejoin="round" stroke-width=".394" d="M0.6 8.7L1 4.3 3.2 0.9 5 4.6 4.7 9.2 2.4 12.4z" transform="translate(-77.000000, -439.000000) translate(77.000000, 439.000000) translate(8.000000, 15.000000) translate(5.000000, 7.000000)"></path>
                    </g>
                    <g>
                        <path fill="#1F99D5" fill-rule="nonzero" d="M3.8 7.2L3.4 4.5 5.9 3.8zM.9 5.3L2.9 2.1 3.4 4.5z" transform="translate(-77.000000, -439.000000) translate(77.000000, 439.000000) translate(8.000000, 15.000000) translate(11.000000, 5.000000)"></path>
                        <path stroke="#062059" stroke-width=".203" d="M5.9 0.3L0.8 8.8" transform="translate(-77.000000, -439.000000) translate(77.000000, 439.000000) translate(8.000000, 15.000000) translate(11.000000, 5.000000)"></path>
                        <path stroke="#062059" stroke-linecap="round" stroke-linejoin="round" stroke-width=".339" d="M0.9 5.3L2.9 2.1 5.9 0.3 5.9 3.8 3.8 7.2 0.8 8.8z" transform="translate(-77.000000, -439.000000) translate(77.000000, 439.000000) translate(8.000000, 15.000000) translate(11.000000, 5.000000)"></path>
                    </g>
                    <g>
                        <path fill="#1F99D5" fill-rule="nonzero" d="M7.3 2.4L4.7 3.1 3.8 0.8z" transform="translate(-77.000000, -439.000000) translate(77.000000, 439.000000) translate(8.000000, 15.000000) translate(8.000000, 26.000000)"></path>
                        <path fill="#2098D5" fill-rule="nonzero" d="M5.7 5.3L2.4 3.8 4.7 3.1z" transform="translate(-77.000000, -439.000000) translate(77.000000, 439.000000) translate(8.000000, 15.000000) translate(8.000000, 26.000000)"></path>
                        <path stroke="#062059" stroke-width=".195" d="M0.4 1.2L9.1 5.1" transform="translate(-77.000000, -439.000000) translate(77.000000, 439.000000) translate(8.000000, 15.000000) translate(8.000000, 26.000000)"></path>
                        <path stroke="#062059" stroke-linecap="round" stroke-linejoin="round" stroke-width=".325" d="M5.7 5.3L2.4 3.8 0.4 1.2 3.8 0.8 7.3 2.4 9.1 5.1z" transform="translate(-77.000000, -439.000000) translate(77.000000, 439.000000) translate(8.000000, 15.000000) translate(8.000000, 26.000000)"></path>
                    </g>
                    <path fill="#1F99D5" fill-rule="nonzero" d="M31.6 22.1c-2.3-2.8-5.7-4.3-8.4-5.3-.3-.8-.7-1.4-1.2-2.1.6-.5 1-1.1 1.3-1.6l1.3-2.2c.3-.5.1-1.1-.3-1.3-.5-.3-1.1-.1-1.3.3l-1.3 2.2c-.2.4-.5.7-.7 1-.4-.6-.8-1.3-.9-2-.1-.5-.6-.9-1.1-.8-.5.1-.9.6-.8 1.1.3 1.5 1.1 2.7 1.9 3.8.5.7 1 1.4 1.4 2.2.1.2.1.3.2.5.1.4.2.8.2 1.2 0 .6-.2 1.2-.5 1.8-.5.9-1.3 1.7-2.2 2.4l-3.7-1.7-1.3-.4c-.5-.1-1 .2-1.2.7-.2.5.2 1 .7 1.2l1.1.3 2.3 1.1c-.8.4-1.6.7-2.4.9-.5.1-.8.7-.7 1.2.1.4.5.7.9.7h.2c1.4-.3 2.9-1 4.3-1.8.2-.1.4-.2.6-.4 1.2-.9 2.3-1.9 3-3.1.4-.6.6-1.3.7-2 2.1.8 4.3 2 5.8 3.9 2.8 3.4 2.6 8.4 1.9 12-.3 1.7-.8 3.5-1.2 5.1-.7 2.7-1.4 5.5-1.6 8.4-.2 2.5 0 4.9.5 7.3.1.6.7 1.1 1.4 1.1h.3c.7-.2 1.2-.9 1.1-1.7-.5-2.1-.6-4.3-.5-6.5.2-2.6.9-5.2 1.6-7.9.4-1.7.9-3.5 1.2-5.3.6-4.2.8-10-2.6-14.3z" transform="translate(-77.000000, -439.000000) translate(77.000000, 439.000000) translate(8.000000, 15.000000)"></path>
                    <path fill="#062059" fill-rule="nonzero" d="M56.3 37.5c4.7 0 8.6-2.3 11.6-6.8 1.5-2.5 2.5-5.3 2.8-8.2.2-1 .3-2 .3-3l.1-1.3V18c-.1-3-.4-6.4-2.2-9.6C65.7 3 61 .4 54.8.6c-2.2 0-4.3.6-6.1 1.7-3.1 2-4.7 5.1-4.8 9.1 0 1.3.2 2.7.8 3.9.3.7 1.2 1 1.9.7.7-.3 1-1.2.7-1.9-.4-.8-.6-1.7-.5-2.7.1-3.1 1.2-5.3 3.5-6.8 1.4-.9 3-1.3 4.7-1.3 4.8-.4 9.3 2.1 11.5 6.4 1.3 2.3 1.7 4.9 1.8 8.1 0 .4-.1.8-.1 1.2-.1 1-.2 1.9-.3 2.8-.3 2.5-1.1 4.9-2.4 7-2.4 3.7-5.4 5.6-9.2 5.6h-.7c-1.9 0-3.7-.9-5-2.4-1.5-1.8-2.2-4.5.2-6.8.6-.5.7-1.4.2-2-.5-.6-1.4-.7-2-.2-.1 0-.1.1-.2.2-1.6 1.4-2.5 3.4-2.5 5.5.1 1.9.8 3.7 2 5.2 1.7 2.1 4.3 3.3 7 3.4l1 .2z" transform="translate(-77.000000, -439.000000) translate(77.000000, 439.000000) translate(8.000000, 15.000000)"></path>
                    <g>
                        <path fill="#1F99D5" fill-rule="nonzero" d="M6.1 10.5L5.6 6 1.5 6zM9.7 6.3L5.5 2.1 5.6 6z" transform="translate(-77.000000, -439.000000) translate(77.000000, 439.000000) translate(8.000000, 15.000000) translate(54.000000, 14.000000)"></path>
                        <path stroke="#062059" stroke-width=".325" d="M0.1 0.6L11.4 11.8" transform="translate(-77.000000, -439.000000) translate(77.000000, 439.000000) translate(8.000000, 15.000000) translate(54.000000, 14.000000)"></path>
                        <path stroke="#062059" stroke-linecap="round" stroke-linejoin="round" stroke-width=".542" d="M9.7 6.3L5.5 2.1 0.1 0.6 1.5 6 6.1 10.5 11.4 11.8z" transform="translate(-77.000000, -439.000000) translate(77.000000, 439.000000) translate(8.000000, 15.000000) translate(54.000000, 14.000000)"></path>
                    </g>
                    <g>
                        <path fill="#1F99D5" fill-rule="nonzero" d="M1.1 9.2L3 6.6 0.7 4.6z" transform="translate(-77.000000, -439.000000) translate(77.000000, 439.000000) translate(8.000000, 15.000000) translate(61.000000, 7.000000)"></path>
                        <path fill="#2098D5" fill-rule="nonzero" d="M5.1 8.7L4.8 4.3 3 6.6z" transform="translate(-77.000000, -439.000000) translate(77.000000, 439.000000) translate(8.000000, 15.000000) translate(61.000000, 7.000000)"></path>
                        <path stroke="#062059" stroke-width=".236" d="M2.6 0.9L3.4 12.4" transform="translate(-77.000000, -439.000000) translate(77.000000, 439.000000) translate(8.000000, 15.000000) translate(61.000000, 7.000000)"></path>
                        <path stroke="#062059" stroke-linecap="round" stroke-linejoin="round" stroke-width=".394" d="M5.1 8.7L4.8 4.3 2.6 0.9 0.7 4.6 1.1 9.2 3.4 12.4z" transform="translate(-77.000000, -439.000000) translate(77.000000, 439.000000) translate(8.000000, 15.000000) translate(61.000000, 7.000000)"></path>
                    </g>
                    <g>
                        <path fill="#1F99D5" fill-rule="nonzero" d="M3 7.2L3.4 4.5.9 3.8zM5.8 5.3L3.9 2.1 3.4 4.5z" transform="translate(-77.000000, -439.000000) translate(77.000000, 439.000000) translate(8.000000, 15.000000) translate(54.000000, 5.000000)"></path>
                        <path stroke="#062059" stroke-width=".203" d="M0.9 0.3L6 8.8" transform="translate(-77.000000, -439.000000) translate(77.000000, 439.000000) translate(8.000000, 15.000000) translate(54.000000, 5.000000)"></path>
                        <path stroke="#062059" stroke-linecap="round" stroke-linejoin="round" stroke-width=".339" d="M5.8 5.3L3.9 2.1 0.9 0.3 0.9 3.8 3 7.2 6 8.8z" transform="translate(-77.000000, -439.000000) translate(77.000000, 439.000000) translate(8.000000, 15.000000) translate(54.000000, 5.000000)"></path>
                    </g>
                    <g>
                        <path fill="#1F99D5" fill-rule="nonzero" d="M2.5 2.4L5.1 3.1 6 .8zM4.1 5.3L7.3 3.8 5.1 3.1z" transform="translate(-77.000000, -439.000000) translate(77.000000, 439.000000) translate(8.000000, 15.000000) translate(54.000000, 26.000000)"></path>
                        <path stroke="#062059" stroke-width=".195" d="M9.4 1.2L0.6 5.1" transform="translate(-77.000000, -439.000000) translate(77.000000, 439.000000) translate(8.000000, 15.000000) translate(54.000000, 26.000000)"></path>
                        <path stroke="#062059" stroke-linecap="round" stroke-linejoin="round" stroke-width=".325" d="M4.1 5.3L7.3 3.8 9.4 1.2 6 0.8 2.5 2.4 0.6 5.1z" transform="translate(-77.000000, -439.000000) translate(77.000000, 439.000000) translate(8.000000, 15.000000) translate(54.000000, 26.000000)"></path>
                    </g>
                    <path fill="#1F99D5" fill-rule="nonzero" d="M40.2 22.1c2.3-2.8 5.7-4.3 8.4-5.3.3-.8.7-1.4 1.2-2.1-.6-.5-1-1.1-1.3-1.6L47.3 11c-.3-.5-.1-1.1.3-1.3.5-.3 1.1-.1 1.3.3l1.3 2.2c.2.4.5.7.7 1 .4-.6.8-1.3.9-2 .1-.5.6-.9 1.1-.8.5.1.9.6.8 1.1-.3 1.5-1.1 2.7-1.9 3.8-.5.7-1 1.4-1.4 2.2-.1.2-.1.3-.2.5-.1.4-.2.8-.2 1.2 0 .6.2 1.2.5 1.8.5.9 1.3 1.7 2.2 2.4l3.7-1.7 1.3-.4c.5-.1 1 .2 1.2.7.1.5-.2 1-.7 1.2l-1.1.3-2.3 1.1c.8.4 1.6.7 2.4.9.5.1.8.7.7 1.2-.1.4-.5.7-.9.7h-.2c-1.4-.3-2.9-1-4.3-1.8-.2-.1-.4-.2-.6-.4-1.2-.9-2.3-1.9-3-3.1-.4-.6-.6-1.3-.7-2-2.1.8-4.3 2-5.8 3.9-2.8 3.4-2.6 8.4-1.9 12 .3 1.7.8 3.5 1.2 5.1.7 2.7 1.4 5.5 1.6 8.4.2 2.5 0 4.9-.5 7.3-.1.6-.7 1.1-1.4 1.1h-.3c-.7-.2-1.2-.9-1.1-1.7.5-2.1.6-4.3.5-6.5-.2-2.6-.9-5.2-1.6-7.9-.4-1.7-.9-3.5-1.2-5.3-.8-4.3-.9-10.1 2.5-14.4z" transform="translate(-77.000000, -439.000000) translate(77.000000, 439.000000) translate(8.000000, 15.000000)"></path>
                </g>
            </g>
        </g>
    </g>
</svg>