<svg xmlns="http://www.w3.org/2000/svg" width="88" height="88" viewBox="0 0 88 88">
    <g fill="none" fill-rule="evenodd">
        <g fill-rule="nonzero">
            <g>
                <g>
                    <path fill="#062059" d="M17.362 43C11.837 43 7.283 40.321 3.8 35.018 2.01 32.112.891 28.849.524 25.463.317 24.28.218 23.088.131 21.949L0 20.419v-.205c.11-3.45.459-7.451 2.577-11.139C6.279 2.763 11.847-.274 19.153.02c2.543.014 5.034.715 7.207 2.028 3.647 2.343 5.547 5.922 5.634 10.64.053 1.564-.257 3.118-.906 4.544-.25.54-.77.908-1.367.963-.596.056-1.177-.209-1.523-.694-.347-.485-.406-1.117-.157-1.657.443-.97.652-2.028.612-3.091-.077-3.59-1.42-6.182-4.117-7.906-1.664-.996-3.572-1.517-5.514-1.508-5.61-.482-10.96 2.442-13.551 7.408-1.584 2.7-1.999 5.704-2.13 9.478 0 .489.088.977.12 1.454.099 1.15.186 2.234.339 3.308.319 2.91 1.277 5.717 2.806 8.22 2.85 4.339 6.377 6.508 10.767 6.508h.874c2.252-.043 4.376-1.046 5.83-2.755 1.748-2.071 2.589-5.238-.283-7.906-.494-.393-.725-1.027-.597-1.642.127-.615.592-1.107 1.202-1.274.61-.166 1.262.022 1.688.486 1.835 1.623 2.897 3.938 2.926 6.377-.06 2.216-.889 4.343-2.347 6.02-2.04 2.42-5.025 3.856-8.201 3.947L17.362 43z" transform="translate(-77.000000, -564.000000) translate(77.000000, 564.000000) translate(6.000000, 11.000000)"></path>
                    <path fill="#1F99D5" d="M31.468 24.62c-2.727-3.29-6.761-5.023-10.007-6.153-.379-.85-.855-1.656-1.42-2.403.624-.525 1.143-1.157 1.533-1.865l1.499-2.5c.162-.255.21-.563.134-.853-.076-.29-.271-.537-.54-.683-.262-.158-.58-.203-.878-.127-.298.077-.55.27-.7.532l-1.532 2.49c-.222.437-.503.842-.834 1.207-.533-.705-.916-1.507-1.127-2.358-.082-.392-.373-.711-.763-.838-.39-.126-.82-.04-1.127.225-.307.266-.446.67-.363 1.062.443 1.608 1.234 3.104 2.32 4.388.65.781 1.206 1.631 1.657 2.534.08.175.147.355.203.538.143.432.212.884.203 1.338-.024.743-.24 1.468-.63 2.106-.68 1.09-1.596 2.022-2.683 2.732l-4.417-1.997-1.51-.416c-.403-.11-.835-.002-1.134.282-.299.285-.42.703-.315 1.097.103.394.415.705.818.815l1.34.373 2.784 1.25c-.906.427-1.854.765-2.828 1.01-.294.064-.55.242-.708.491-.159.25-.208.55-.138.836.123.506.594.858 1.127.844.094.011.188.011.282 0 1.812-.477 3.54-1.217 5.127-2.194.266-.056.503-.204.665-.416 1.455-.922 2.676-2.152 3.572-3.599.425-.703.711-1.476.846-2.281 2.673.925 5.064 2.49 6.952 4.552 3.313 3.993 3.088 9.763 2.322 13.899-.372 1.996-.913 4.015-1.431 5.978-.947 3.185-1.6 6.445-1.95 9.742-.219 2.838-.002 5.692.642 8.468.165.738.836 1.264 1.612 1.262.123.016.248.016.372 0 .437-.086.82-.342 1.06-.708.24-.366.317-.811.213-1.234-.575-2.474-.765-5.018-.563-7.547.34-3.108.961-6.18 1.859-9.182.53-2.018 1.127-4.091 1.476-6.198.868-4.804 1.07-11.562-3.02-16.498z" transform="translate(-77.000000, -564.000000) translate(77.000000, 564.000000) translate(6.000000, 11.000000)"></path>
                    <path fill="#062059" d="M58.674 43c5.524 0 10.077-2.679 13.56-7.982 1.789-2.906 2.907-6.169 3.275-9.555.174-1.182.273-2.375.36-3.514l.131-1.53v-.205c-.12-3.45-.426-7.451-2.587-11.139C69.712 2.763 64.143-.274 56.84.02c-2.543.014-5.034.715-7.206 2.028-3.646 2.343-5.546 5.922-5.633 10.64-.022 1.571.322 3.126 1.004 4.544.386.836 1.381 1.202 2.222.819s1.21-1.372.824-2.207c-.442-.97-.652-2.028-.611-3.091.076-3.59 1.42-6.182 4.116-7.906 1.648-.986 3.535-1.507 5.459-1.508 5.609-.482 10.957 2.442 13.548 7.408 1.583 2.7 1.998 5.737 2.184 9.478 0 .489-.088.977-.12 1.454-.099 1.15-.186 2.234-.339 3.308-.319 2.91-1.277 5.717-2.806 8.22-2.85 4.339-6.375 6.508-10.764 6.508h-.874c-2.251-.043-4.376-1.046-5.83-2.755-1.746-2.071-2.587-5.238.284-7.906.591-.645.584-1.632-.016-2.267-.6-.636-1.591-.707-2.276-.163-1.835 1.623-2.897 3.938-2.926 6.377.044 2.21.854 4.335 2.292 6.02 2.04 2.42 5.024 3.856 8.2 3.947l1.102.033z" transform="translate(-77.000000, -564.000000) translate(77.000000, 564.000000) translate(6.000000, 11.000000)"></path>
                    <path fill="#1F99D5" d="M44.532 24.62c2.727-3.29 6.761-5.023 10.006-6.153.38-.85.856-1.656 1.42-2.403-.623-.525-1.143-1.157-1.532-1.865l-1.465-2.5c-.163-.255-.211-.563-.135-.853.077-.29.272-.537.54-.683.263-.158.58-.203.879-.127.298.077.55.27.699.532l1.499 2.49c.222.437.503.842.834 1.207.533-.705.916-1.507 1.126-2.358.128-.606.736-.997 1.358-.872.623.124 1.024.716.896 1.321-.443 1.608-1.235 3.104-2.321 4.388-.65.781-1.205 1.631-1.657 2.534-.079.175-.147.355-.202.538-.143.432-.212.884-.203 1.338.023.743.24 1.468.63 2.106.68 1.09 1.596 2.022 2.683 2.732l4.417-1.997 1.51-.416c.622-.17 1.268.184 1.442.79.175.605-.189 1.234-.811 1.404l-1.34.373-2.784 1.25c.906.427 1.853.765 2.828 1.01.294.064.549.242.708.491.159.25.208.55.137.836-.122.506-.593.858-1.127.844-.093.011-.188.011-.281 0-1.812-.477-3.54-1.217-5.128-2.194-.266-.056-.502-.204-.664-.416-1.455-.922-2.676-2.152-3.573-3.599-.424-.703-.71-1.476-.845-2.281-2.673.925-5.064 2.49-6.952 4.552-3.313 3.993-3.088 9.763-2.322 13.899.372 1.996.913 4.015 1.431 5.978.947 3.185 1.6 6.445 1.95 9.742.219 2.838.002 5.692-.642 8.468-.165.738-.836 1.264-1.612 1.262-.123.016-.248.016-.372 0-.437-.086-.82-.342-1.06-.708-.24-.366-.317-.811-.213-1.234.575-2.474.765-5.018.563-7.547-.34-3.108-.961-6.18-1.859-9.182-.53-2.018-1.127-4.091-1.476-6.198-.868-4.804-1.07-11.562 3.02-16.498z" transform="translate(-77.000000, -564.000000) translate(77.000000, 564.000000) translate(6.000000, 11.000000)"></path>
                </g>
            </g>
        </g>
    </g>
</svg>