<svg xmlns="http://www.w3.org/2000/svg" id="Layer_1" data-name="Layer 1" width="19" height="19.86" viewBox="0 0 19 19.86">
  <path d="M10.24,18.19a.62.62,0,0,1,.62.62.62.62,0,0,1-.62.62H4.3a2.86,2.86,0,0,1-2-.84,2.91,2.91,0,0,1-.84-2V3.45a2.86,2.86,0,0,1,.84-2,2.83,2.83,0,0,1,2-.85h5.94a.62.62,0,1,1,0,1.24H4.3A1.64,1.64,0,0,0,2.66,3.45v13.1A1.64,1.64,0,0,0,4.3,18.19Zm4.2-11.42a.58.58,0,0,1,0-.87.66.66,0,0,1,.92,0l3.87,3.66a.08.08,0,0,1,0,0h0l0,0h.05a.56.56,0,0,1,.09.31.62.62,0,0,1-.09.32h-.05l0,0h0a.08.08,0,0,1,0,0L15.36,14.1a.66.66,0,0,1-.92,0,.58.58,0,0,1,0-.87l2.76-2.61h-10a.62.62,0,1,1,0-1.24h10L14.44,6.77Z" transform="translate(-0.93 -0.07)" fill="#1f99d5" stroke="#1f99d5" fill-rule="evenodd"/>
</svg>