<svg xmlns="http://www.w3.org/2000/svg" width="88" height="88" viewBox="0 0 88 88">
    <g fill="none" fill-rule="evenodd">
        <g fill-rule="nonzero">
            <g>
                <g>
                    <path fill="#1F99D5" d="M37.4 22L35.9 27.1 42.6 24.8z" transform="translate(-77.000000, -188.000000) translate(77.000000, 188.000000) translate(9.000000, 21.000000)"></path>
                    <path fill="#062059" d="M13.8 24.6L14 21.7 10 18.9 10.2 22.6 13.5 24.8zM16.4 33.6s1-.5.6-.4c-.4.1-1.7-.7-1.7-.7l-3 1L9 32.4l1.1 2.9 2.9-.2s2.7-.1 3.1-.1l.3-1.4zM29.8 36.5l-.2-.6-.5-2.1-.7-.4-3-.1-.7 5-2.4-2.5-2.1 2.5-2.8-1.6.2 1s.3 1.1.7 1.8c.4.7 2.8.2 2.8.2l2.3-.9 1.2-.5 1.8-2 3 .1.4.1zM54.4 30.1l-.2 2.7-1.5 2-2.5-1.6-4.1 1s-1.6-.3-1.6-.8-1.1-1.1-1.1-1.1L42 34.5l-.1 2-.7 2.9-2.5 2.2s-2-1.1-2.7-1.5c-.7-.4-1.5-1.3-1.5-1.3l-2.5.8-1.4-1.4.1.4.7 2.5 1.7-.3 2.4.7s.9.9 1.5 1.3 1.9-.2 1.9-.2l3.3-.5.7-2.9.1-2 3-3.1 1.2 2.7s3.3-1.2 3.8-.8c.5.4 2.6 1.6 2.6 1.6L53 35l6.5-3.7 3-9.9-7.1 7.6-1 1.1z" transform="translate(-77.000000, -188.000000) translate(77.000000, 188.000000) translate(9.000000, 21.000000)"></path>
                    <path fill="#1F99D5" d="M10.2 22.6L20.7 20.6 9.9 18.1zM13.7 13.2L25.9 23.1 19.3 11.4zM25.2 20.1L35.5 17.1 37.4 22zM33.1 4.7L35.4 10.7 31.4 12.3 28.8 8.3zM48.9 24.1L56.8 30.3 59.6 24.7zM43.1 37.3L39.5 28.2 46.1 34.1zM31.4 41.1L28.5 33.4 35.8 37.7zM56.9 13.7L54.1 18.9 58.6 18.1 61.9 16.3 58.3 10.9z" transform="translate(-77.000000, -188.000000) translate(77.000000, 188.000000) translate(9.000000, 21.000000)"></path>
                    <path fill="#062059" d="M12.6 28.4L28.7 25.4 15.3 32.5z" transform="translate(-77.000000, -188.000000) translate(77.000000, 188.000000) translate(9.000000, 21.000000)"></path>
                    <path fill="#1F99D5" d="M22.8 42L19.5 36.7 19.2 42.8zM15.3 32.5L20.6 33.8 16.2 34.9zM42.7 24.8L47.6 14.4 51.1 21zM50.6 36L49.7 29.9 51.9 31.8 53.7 37.7 51.1 36zM39.8 16.2L46.2 9.9 41.6 8zM38.5 5.3L37 10.4 41.6 8zM34.1 39L37.5 34.3 36.5 39.7z" transform="translate(-77.000000, -188.000000) translate(77.000000, 188.000000) translate(9.000000, 21.000000)"></path>
                    <path fill="#062059" d="M16.9 13.2L25.9 23 14.4 14.2zM12.7 35.7L19.5 36.7 19.4 40zM33.4 28.7L39.5 28.2 40.6 30.9zM39.8 16.3L50.5 8.2 54.6 12.8zM37.4 22L42.7 24.8 40.2 18.6 35.5 17.1z" transform="translate(-77.000000, -188.000000) translate(77.000000, 188.000000) translate(9.000000, 21.000000)"></path>
                    <path fill="#1F99D5" d="M12.6 28.4L6.1 25.1 7.9 21.8z" transform="translate(-77.000000, -188.000000) translate(77.000000, 188.000000) translate(9.000000, 21.000000)"></path>
                    <path fill="#062059" d="M7.9 21.8L6.7 17.4 4.4 21.6 6.1 25.1zM57.3 30.6L49.7 29.9 48.9 24.1zM54.1 18.9L58.3 21.9 61.9 16.3 58.6 18.1zM31.4 12.3L25.1 19.2 29.9 16.2 35.4 10.7z" transform="translate(-77.000000, -188.000000) translate(77.000000, 188.000000) translate(9.000000, 21.000000)"></path>
                    <path fill="#1F99D5" d="M25.7 28.7L30.9 32 30.5 27.7 25.7 27.2z" transform="translate(-77.000000, -188.000000) translate(77.000000, 188.000000) translate(9.000000, 21.000000)"></path>
                    <path fill="#062059" d="M30.5 27.7L37.4 22 30.9 32z" transform="translate(-77.000000, -188.000000) translate(77.000000, 188.000000) translate(9.000000, 21.000000)"></path>
                    <path fill="#062059" d="M69.1 26.6c-.1-.5-.2-.9-.5-1.3-.4-.6-.5-1.4-.5-2 0-.5-.1-1.3-.4-1.9l-.6-1.2c-.1-.2-.3-.5-.4-.7l-.1-.2-.6-1.2c-.2-.5-.5-1.1-.9-1.6-.7-.8-1.6-1.2-2.6-1-.5.1-.9-.1-1.4-.5-.1-.1-.1-.1 0-.2 0-.1 0-.1.1-.2 0-.1.1-.1.1-.2.3-.7.2-1.3.2-1.9v-.2c0-.7-.4-1.3-1-1.7-.2-.1-.3-.1-.5-.2h-.2-.1c-.3-.1-.5-.2-.8-.4-.4-.2-.7-.2-1.2-.2-.5.1-.8.4-1.1.6l-.1.1c-.1.1-.2.1-.2.2-.1.1-.2.1-.3.2-.1.1-.1.1-.2 0s-.2-.1-.3-.2l-.3-.1c-.4-.2-.9-.3-1.3-.2-.2.1-.5.1-.8.3v-.1c-.1-.2-.2-.4-.4-.6-.2-.2-.4-.4-.5-.6l-.4-.4c-.3-.3-.5-.5-.5-.8-.1-.4-.3-.8-.5-1.2-.3-.5-.7-.8-1.3-1.1-.2.1-.4.1-.5.1-.6-.1-1.1.1-1.6.2-.3.1-.5.1-.7-.1-.2-.1-.3-.2-.5-.3-.2-.1-.3-.2-.5-.4-.3-.2-.6-.3-.9-.4-.1 0-.1-.1-.3-.2-.2-1.2-.6-2-1.4-2.6-.7-.5-1.3-.9-1.9-1.3-.8-.5-1.8-.6-2.6-.1-.7.3-1.3.6-1.8 1.1-.3.2-.5.2-.6.2-.5 0-.9.1-1.4.3-.1.1-.3.2-.4.3l-.3.2c-.1.1-.3.2-.5.1h-.7c-.5 0-1 .2-1.5.5-.8.6-1 1.5-1.2 2.2 0 .2-.1.4-.1.6v.3c-.2-.1-.4-.2-.6-.2-.4-.1-.8-.2-1.1-.4-.5-.2-.9-.3-1.4-.2-.5.1-.9.4-1.2.8-.4.5-.8.9-1.2 1.1-.6.3-1 .4-1.4.4-.3 0-.6-.1-1-.2-.6-.2-1.2-.3-1.7-.2h-.4c-1.2.1-2.2.9-2.5 2.1-.1.2-.1.5-.3.7l-.1.1c-.2.3-.3.6-.5.8h-.4c-1.5-.2-2.7.7-2.9 2.2v.3l-.1-.1c-.2-.1-.3-.2-.5-.3-.3-.1-.5-.2-.8-.3-.2-.1-.3-.1-.5-.2-.8-.3-1.5-.2-2.1.2-.5.3-.9.7-1.2 1.3l-.2.3c-.1.2-.2.4-.3.5-.3.5-.4 1-.5 1.5-.4.3-.7.2-1.1.2-1 .1-1.8.6-2.3 1.5-.3.5-.4 1-.4 1.6 0 .2-.1.5-.2.7l-.1.1c-.1.3-.3.6-.4.9-.2.7-.1 1.3 0 1.8s.1.8-.1 1c-.3.4-.5.8-.6 1.2-.1.2-.2.4-.4.6-.2.2-.5.4-.7.7-.3.3-.5.7-.5 1.2s.2 1 .5 1.3c.4.4.9.7 1.5.8.3.1.6.2.8.3.9.6 1.9.8 3 .3.4 0 .8-.1 1.2-.3.4-.2.7-.1.9 0 .3.1.4.3.4.4 0 .1.1.2.1.3 0 .2.1.4.2.5.1.2.1.4 0 .6-.2.8-.1 1.5.2 2.1v.1c.2.4.4.9.8 1.3.1.1.6.6 1.2.5.2 0 .5.1.8.3.2.2.5.3.8.4.6.2 1 .6 1.2 1.1.1.4.1.7 0 1.1 0 .5-.2.8-.4 1.1-.3.3-.5.6-.6.8-.3.5-.4 1.2-.3 1.9.1 1 .8 1.9 1.8 2.4.2.1.5.2.7.2.1 0 .1 0 .2.1h.7l1.6-.5c.2-.1.3-.1.5-.1.4-.1.8-.2 1.2-.4.6-.3 1.1-.6 1.6-1 .4-.3.8-.4 1.4-.2.4.1.8.3 1.3.5s.9.3 1.5.2H26.9c.5-.1.8-.3 1.1-.5.3-.2.3-.2.4-.1.2.1.4.2.6.2.4.1.9.1 1.3.2.4 0 .7.1.9.3l.6.3c.2.1.4.2.7.2.6 0 1.3 0 2.1-.2.2-.1.5-.1.7-.1.2 0 .4 0 .6-.1.3 0 .5-.1.8-.2l.4-.1c.1 0 .3 0 .4-.1.4-.1.9-.1 1.4-.3.2-.1.5-.1.8-.1.7 0 1.3-.1 2-.4.3-.2.7-.3 1-.4.2-.1.4-.1.6-.2l.3-.1c.3-.1.6-.1.8.1.2.1.4.4.6.7.4.5 1 .8 1.7.9.6.1 1.3 0 1.9-.2 1.3-.3 2.1-1.1 2.3-2.2.1-.3.2-.5.3-.8.3-.4.4-.9.5-1.3 0-.3.1-.6.3-1 .3-.5.4-1.1.3-1.7.2 0 .3 0 .4.1l.6.6c.6.7 1.3 1 2.1 1h1.5c.3 0 .5 0 .8-.1.4-.1.9-.2 1.4-.4.2-.1.5-.2.7-.4.7-.5.9-1.3 1-2 0-.3.1-.6.1-.9 0-.3.1-.7.1-1 .1-.3.1-.7.2-1 0-.2.1-.4.1-.7 0 0 0-.1.1-.1.5.1.9.1 1.2 0 .9-.1 1.7-.5 2.1-1.3.2-.4.5-.9.6-1.5.1 0 .3.1.5.1.7.1 1.4-.1 2.1-.5.6-.4 1-1 1.1-1.6 0-.1.1-.2.1-.4v-.5zm-2.4.8c-.2.1-.4.2-.6.2-.4-.2-.9-.1-1.2-.1-.3 0-.5.2-.7.3-.2.1-.3.2-.3.2-.4.4-.7.8-.8 1.4 0 .2-.2.5-.3.7l-.1.2s0 .1-.3.1h-.6c-.3-.1-.6 0-.8 0h-.1c-.3 0-.5.1-.7.3H60c-.2.2-.4.4-.7.6-.2.2-.3.5-.3.8v.3c-.1.4-.2.9-.3 1.3 0 .3-.1.6-.1.9 0 .2 0 .4-.1.6 0 .3-.1.7-.2 1 0 .2-.1.2-.3.3-.3 0-.5.1-.7.2l-.2.1c-.2.1-.3.1-.4.1h-1.2c-.3 0-.5-.1-.7-.4l-.7-.7-.1-.2c-.3-.3-.7-.5-1.2-.5h-.7c-.4 0-.8.1-1.2.4l-.4.4c-.4.4-.4.8-.4 1.1v.4c0 .2-.1.3-.1.4-.2.6-.4 1.1-.5 1.6 0 .2-.2.5-.3.7-.2.4-.4.7-.5 1.2 0 .2-.1.3-.2.4l-.1.1c-.4.3-.9.4-1.5.4-.2 0-.3 0-.4-.1l-.2-.2-.1-.1c-.3-.4-.7-.7-1.1-1-.5-.3-.9-.3-1.3-.3h-.7c-.2 0-.5.1-.6.1-.1 0-.2.1-.3.1-.1 0-.2.1-.3.1-.5.1-1 .3-1.5.6-.4.2-.8.3-1.2.3-.6 0-1.2.1-1.7.3-.2.1-.5.1-.8.2-.2 0-.4.1-.6.1h-.2c-.2 0-.4.1-.6.1-.2 0-.5.1-.7.1-.3 0-.7.1-1 .2h-.2c-.3.1-.5.1-.7.1-.1 0-.3-.1-.4-.1-.1 0-.2-.1-.3-.2-.5-.3-1-.4-1.4-.5-.3 0-.7-.1-1-.2l-.3-.1c-.5-.3-1-.3-1.5-.3s-1 .2-1.4.5c-.2.2-.3.2-.6.2h-1.3-.2c-.4-.2-.8-.3-1.2-.5-.6-.2-1.2-.3-1.5-.2h-.2c-.4 0-1 0-1.5.3-.3.2-.5.3-.8.5-.6.4-1.1.7-1.6.8-.5.1-1 .3-1.7.5-.3.1-.8 0-1-.3-.1-.1-.1-.2-.2-.3-.1-.3-.1-.6.1-.9.1-.2.3-.4.4-.6.4-.4.6-1 .6-1.7v-1.9c0-.4-.1-.7-.3-1-.5-.7-1.1-1.2-1.8-1.6-.1 0-.2-.1-.3-.1-.2 0-.4-.2-.6-.3-.4-.3-.9-.5-1.4-.5h-.2c-.2-.4-.4-.8-.4-1.1v-.1-.2c.1-.7.1-1.4-.1-2.2 0-.1-.1-.2-.1-.3 0-.1-.1-.3-.1-.4-.1-.2-.2-.4-.4-.7-.2-.2-.4-.5-.7-.7-.3-.3-.8-.4-1.3-.5-.6 0-1.3 0-2 .3-.3.1-.5.2-.8.3-.2.1-.3.1-.5.2s-.3.1-.5-.1l.2.2c-.1 0-.1-.1-.2-.1-.4-.2-.8-.4-1.1-.5-.1 0-.2-.1-.3-.1.3-.2.5-.5.8-.8.2-.1.3-.3.4-.5.1-.1.1-.3.2-.4l.3-.6c.5-1 .5-1.2.4-2.2 0-.3-.1-.5-.1-.8v-.2c0-.2 0-.4.2-.6v-.1c.2-.3.4-.7.4-1.1v-.8c0-.2.1-.5.2-.6.1-.1.3-.3.5-.3l.2.1c.4.2.9.2 1.2.2h.1c.4 0 .7-.2.8-.3l.5-.5c.2-.2.3-.6.3-.8 0-.3.1-.6.3-1 .1-.2.3-.5.4-.8l.2-.4c0-.1.1-.2.3-.3h.1c.5.2 1 .3 1.4.5l.2.2c.3.2.7.4 1.1.3.5.1 1.2 0 1.8-.9.2-.3.3-.7.3-.9 0-.3.1-.5.2-.7 0 0 .1-.2.4-.2.3 0 .7.1 1.2 0 .3 0 .5-.1.8-.3.7-.5 1.2-1.3 1.6-2.2.1-.1.1-.3.1-.4v-.1c.1-.3.3-.5.6-.5h1c.7.3 1.4.4 2.3.4.7 0 1.4-.2 2.2-.6.6-.3 1.1-.8 1.5-1.3l.2-.2.1-.1c.4.2.8.3 1.3.4h.1c.6.3 1.1.3 1.6.2.3 0 .6-.2.8-.3.1-.1.2-.2.4-.3l.1-.1c.4-.4.4-.8.4-1.1v-.1c0-.5.1-.9.3-1.3.1-.3.2-.3.3-.4.2-.1.4-.1.5-.1h.2c.4 0 .8 0 1.3-.2.3-.2.7-.3.9-.5.3-.2.5-.2.7-.2.6.1 1.1-.1 1.7-.5.3-.3.7-.5 1.1-.7.2-.1.3-.2.5-.3.1 0 .2-.1.5.1.5.3 1.1.7 1.7 1.1.1.1.2.2.3.5.1.2.1.4.2.6 0 .1.1.3.1.4l.3.6c.2.2.4.5.7.7.2.2.4.3.7.3.2 0 .3.1.4.2l.1.1c.3.2.6.5 1 .7.4.3.9.3 1.2.3.5 0 1.1 0 1.8-.2.2.1.4.4.5.8.1.4.3.7.5 1 .2.3.4.5.7.8l.2.2.3.3.3.3c.2.6.6.9 1 1.1.3.2.5.3.8.3.5.1 1 0 1.5-.3 0 0 .1 0 .1.1.6.4 1.3.4 2 .4.5 0 .8-.3 1.1-.5l.1-.1c.2-.1.4-.3.6-.4l.6.3c.2.1.4.1.6.2.1.4 0 .8-.1 1.1-.3.7-.3 1.4-.2 2 0 .3.2.5.3.6.2.2.3.4.5.5.6.5 1.3.8 2.2.8h1l.2.1c.1 0 .2.1.2.2.1.3.3.5.4.8l.4.8c.1.3.3.6.4.9.1.3.3.5.4.8.2.4.4.8.6 1.1.2.3.2.7.2 1.2 0 .9.1 2 .8 3 0 .1.1.1.1.2-.1-.3 0-.1-.3.4z" transform="translate(-77.000000, -188.000000) translate(77.000000, 188.000000) translate(9.000000, 21.000000)"></path>
                </g>
            </g>
        </g>
    </g>
</svg>